<svg width="149" height="31" viewBox="0 0 149 31" fill="none" xmlns="http://www.w3.org/2000/svg">
<path d="M41.6405 24.7057L38 7.53951H40.9922L42.9621 17.7166C43.0286 18.0109 43.0784 18.2766 43.1117 18.5136C43.1532 18.7425 43.1906 18.9837 43.2239 19.2371C43.2654 18.9918 43.3153 18.7466 43.3735 18.5014C43.4317 18.2561 43.4982 17.9946 43.573 17.7166L46.2535 7.53951H48.6722L51.3901 17.6921C51.4649 17.9619 51.5272 18.2153 51.5771 18.4523C51.627 18.6894 51.6644 18.9223 51.6893 19.1512C51.7309 18.9305 51.7724 18.7057 51.814 18.4768C51.8556 18.2398 51.9054 17.9946 51.9636 17.7411L54.0706 7.53951H57.0254L53.2478 24.7057H50.7169L47.7496 13.9401C47.6831 13.6948 47.6208 13.4659 47.5626 13.2534C47.5127 13.0409 47.467 12.8161 47.4254 12.579C47.3922 12.8243 47.3506 13.049 47.3008 13.2534C47.2509 13.4496 47.1927 13.6744 47.1262 13.9278L44.1964 24.7057H41.6405Z" fill="#F3F3F3"/>
<path d="M64.2833 25C63.0781 25 62.0391 24.7262 61.1664 24.1785C60.2937 23.6308 59.6246 22.8665 59.1591 21.8856C58.6937 20.8965 58.4609 19.7439 58.4609 18.4278C58.4609 17.0627 58.702 15.8937 59.1841 14.921C59.6661 13.9401 60.3435 13.188 61.2163 12.6649C62.089 12.1417 63.1113 11.8801 64.2833 11.8801C65.289 11.8801 66.2033 12.0926 67.0261 12.5177C67.8573 12.9428 68.5181 13.5967 69.0084 14.4796C69.4988 15.3542 69.744 16.47 69.744 17.827C69.744 18.0395 69.7399 18.2929 69.7316 18.5872C69.7233 18.8733 69.6983 19.1635 69.6568 19.4578H61.2412C61.2911 20.0954 61.4448 20.6512 61.7025 21.1253C61.9685 21.5995 62.3217 21.9714 62.7622 22.2411C63.2027 22.5027 63.7222 22.6335 64.3207 22.6335C64.9025 22.6335 65.4178 22.5395 65.8666 22.3515C66.3155 22.1553 66.7435 21.8447 67.1508 21.4196L68.7716 23.0995C68.2479 23.6635 67.6079 24.1213 66.8516 24.4728C66.1035 24.8243 65.2474 25 64.2833 25ZM61.2537 17.2384H67.0012C66.9762 16.6417 66.8516 16.1185 66.6272 15.6689C66.4111 15.2193 66.1035 14.8719 65.7046 14.6267C65.3056 14.3733 64.8194 14.2466 64.2459 14.2466C63.4479 14.2466 62.7664 14.4918 62.2012 14.9823C61.6443 15.4728 61.3285 16.2248 61.2537 17.2384Z" fill="#F3F3F3"/>
<path d="M78.5531 25C77.9547 25 77.4269 24.8937 76.9697 24.6812C76.5209 24.4687 76.0929 24.1335 75.6856 23.6757V24.7057H72.8929V8.26294L75.6856 7V13.1798C76.0347 12.7629 76.4586 12.4441 76.9573 12.2234C77.4643 11.9946 78.0128 11.8801 78.603 11.8801C79.6586 11.8801 80.5812 12.154 81.3708 12.7016C82.1687 13.2411 82.7879 14.0014 83.2284 14.9823C83.6689 15.9632 83.8892 17.1117 83.8892 18.4278C83.8892 20.5041 83.4196 22.1185 82.4804 23.2711C81.5412 24.4237 80.2321 25 78.5531 25ZM78.204 22.3883C79.1183 22.3883 79.8206 22.045 80.311 21.3583C80.8097 20.6717 81.0591 19.6948 81.0591 18.4278C81.0591 17.1444 80.8139 16.1676 80.3235 15.4973C79.8331 14.8188 79.1266 14.4796 78.204 14.4796C77.697 14.4796 77.2108 14.6022 76.7453 14.8474C76.2882 15.0845 75.9349 15.3951 75.6856 15.7793V21.0886C75.9599 21.4973 76.309 21.8161 76.7329 22.045C77.1567 22.2738 77.6471 22.3883 78.204 22.3883Z" fill="#F3F3F3"/>
<path d="M90.5593 25C89.5952 25 88.8679 24.7302 88.3775 24.1907C87.8871 23.6512 87.6419 22.8624 87.6419 21.8243V14.5899H85.7095V12.1744H87.6419V8.31199L90.4346 7V12.1744H93.4019V14.5899H90.4346V21.2234C90.4346 21.673 90.5219 22.0082 90.6965 22.2289C90.8793 22.4414 91.1578 22.5477 91.5318 22.5477C92.1385 22.5477 92.7993 22.3515 93.5141 21.9591L93.2024 24.436C92.8118 24.624 92.4004 24.7629 91.9681 24.8529C91.5359 24.951 91.0663 25 90.5593 25Z" fill="#F3F3F3"/>
<path d="M100.987 25C99.5159 25 98.3938 24.5586 97.6208 23.6757C96.8478 22.7929 96.4613 21.5014 96.4613 19.8011V12.1744H99.254V19.2616C99.254 20.3243 99.4535 21.1131 99.8525 21.6281C100.26 22.1349 100.871 22.3883 101.685 22.3883C102.575 22.3883 103.235 22.1349 103.668 21.6281C104.1 21.1131 104.316 20.3406 104.316 19.3106V12.1744H107.121V24.7057H104.316V23.5286C103.925 24.0191 103.451 24.3869 102.895 24.6322C102.346 24.8774 101.71 25 100.987 25Z" fill="#F3F3F3"/>
<path d="M111.172 24.7057V12.1744H113.965V13.4005C114.364 12.8856 114.842 12.5054 115.398 12.2602C115.964 12.0068 116.608 11.8801 117.331 11.8801C118.802 11.8801 119.92 12.3215 120.685 13.2044C121.449 14.0872 121.832 15.3828 121.832 17.0913V24.7057H119.027V17.594C119.027 16.5477 118.823 15.767 118.416 15.252C118.017 14.7371 117.41 14.4796 116.595 14.4796C115.714 14.4796 115.054 14.733 114.613 15.2398C114.181 15.7466 113.965 16.515 113.965 17.545V24.7057H111.172Z" fill="#F3F3F3"/>
<path d="M130.086 25C128.615 25 127.493 24.5586 126.72 23.6757C125.947 22.7929 125.56 21.5014 125.56 19.8011V12.1744H128.353V19.2616C128.353 20.3243 128.552 21.1131 128.951 21.6281C129.359 22.1349 129.97 22.3883 130.784 22.3883C131.674 22.3883 132.334 22.1349 132.767 21.6281C133.199 21.1131 133.415 20.3406 133.415 19.3106V12.1744H136.22V24.7057H133.415V23.5286C133.024 24.0191 132.55 24.3869 131.994 24.6322C131.445 24.8774 130.809 25 130.086 25Z" fill="#F3F3F3"/>
<path d="M144.212 25C143.257 25 142.338 24.7997 141.457 24.3992C140.576 23.9905 139.87 23.4469 139.338 22.7684L141.208 21.1989C141.648 21.6485 142.143 22.0041 142.691 22.2657C143.24 22.5272 143.776 22.658 144.3 22.658C144.965 22.658 145.48 22.5436 145.846 22.3147C146.211 22.0777 146.394 21.7466 146.394 21.3215C146.394 21.0599 146.311 20.8229 146.145 20.6104C145.979 20.3896 145.688 20.173 145.272 19.9605C144.857 19.748 144.283 19.5068 143.552 19.2371C142.122 18.7221 141.108 18.1662 140.51 17.5695C139.911 16.9646 139.612 16.2084 139.612 15.3011C139.612 14.2793 140.028 13.4537 140.859 12.8243C141.69 12.1948 142.77 11.8801 144.1 11.8801C145.006 11.8801 145.842 12.0518 146.606 12.3951C147.379 12.7302 148.044 13.2166 148.601 13.8542L146.743 15.3624C145.987 14.6022 145.089 14.2221 144.05 14.2221C143.494 14.2221 143.049 14.3283 142.716 14.5409C142.384 14.7452 142.218 15.0191 142.218 15.3624C142.218 15.7057 142.409 16.0123 142.791 16.282C143.182 16.5436 143.897 16.8501 144.936 17.2016C145.883 17.5123 146.656 17.8597 147.255 18.2439C147.861 18.6281 148.302 19.0695 148.576 19.5681C148.859 20.0668 149 20.6431 149 21.297C149 22.4496 148.572 23.3569 147.716 24.0191C146.868 24.673 145.7 25 144.212 25Z" fill="#F3F3F3"/>
<path fill-rule="evenodd" clip-rule="evenodd" d="M2.52174 16.5C2.52174 23.1154 7.88459 28.4783 14.5 28.4783C21.1154 28.4783 26.4783 23.1154 26.4783 16.5C26.4783 9.88459 21.1154 4.52174 14.5 4.52174C7.88459 4.52174 2.52174 9.88459 2.52174 16.5ZM14.5 2C6.49187 2 0 8.49187 0 16.5C0 24.5081 6.49187 31 14.5 31C22.5081 31 29 24.5081 29 16.5C29 8.49187 22.5081 2 14.5 2Z" fill="#F3F3F3"/>
<path d="M9 11C9 4.92487 13.9249 0 20 0V0C26.0751 0 31 4.92487 31 11V11C31 17.0751 26.0751 22 20 22V22C13.9249 22 9 17.0751 9 11V11Z" fill="#3552EC"/>
</svg>
