<svg fill="none" height="12" viewbox="0 0 49 12" width="49" xmlns="http://www.w3.org/2000/svg">
<path clip-rule="evenodd" d="M43.2774 0.23864L48.7482 5.42386C49.0839 5.74205 49.0839 6.25794 48.7482 6.57613L43.2774 11.7614C42.9417 12.0795 42.3974 12.0795 42.0617 11.7614C41.726 11.4432 41.726 10.9273 42.0617 10.6091L46.065 6.81478L0.85965 6.81478C0.384879 6.81478 5.63876e-07 6.44999 5.24537e-07 6C4.85197e-07 5.55001 0.384878 5.18522 0.85965 5.18522L46.065 5.18522L42.0617 1.39091C41.726 1.07272 41.726 0.556831 42.0617 0.23864C42.3974 -0.0795515 42.9417 -0.0795515 43.2774 0.23864Z" fill-rule="evenodd" fill="#FFC700"/>
</svg>